<svg width="154" height="93" viewBox="0 0 154 93" fill="none" xmlns="http://www.w3.org/2000/svg">
<path d="M5.78531 12.3841H147.529C150.803 12.3841 153.391 9.8721 153.391 6.59879C153.391 3.40147 150.803 0.88916 147.529 0.88916H5.78531C2.51199 0.88916 0 3.40147 0 6.59879C0 9.8721 2.51199 12.3841 5.78531 12.3841ZM5.78531 52.2736H147.529C150.803 52.2736 153.391 49.6853 153.391 46.4879C153.391 43.291 150.803 40.7786 147.529 40.7786H5.78531C2.51199 40.7786 0 43.291 0 46.4879C0 49.6853 2.51199 52.2736 5.78531 52.2736ZM66.1524 92.0867H147.529C150.803 92.0867 153.391 89.5748 153.391 86.3774C153.391 83.1801 150.803 80.5918 147.529 80.5918H66.1524C62.9551 80.5918 60.4427 83.1801 60.4427 86.3774C60.4427 89.5748 62.9551 92.0867 66.1524 92.0867Z" fill="black"/>
</svg>
